<svg width="64" height="64" viewBox="0 0 64 64" fill="none" xmlns="http://www.w3.org/2000/svg">
<circle cx="32" cy="32" r="32" fill="#3D6AC7"/>
<path d="M20.7333 22.5466L22.6133 20.6666L24.9999 23.0666L23.1199 24.9466L20.7333 22.5466ZM30.6666 21.3333H33.3333V17.3333H30.6666V21.3333ZM17.3333 33.3333H21.3333V30.6666H17.3333V33.3333ZM33.3333 42.5999V37.3199L34.6666 36.5466C36.3199 35.5866 37.3333 33.8266 37.3333 31.9333C37.3333 28.9866 34.9466 26.5999 31.9999 26.5999C29.0533 26.5999 26.6666 28.9866 26.6666 31.9333C26.6666 33.8266 27.6933 35.5866 29.3333 36.5466L30.6666 37.3199V42.5999H33.3333ZM35.9999 45.2666H27.9999V38.8533C25.6133 37.4666 23.9999 34.8933 23.9999 31.9333C23.9999 27.5199 27.5866 23.9333 31.9999 23.9333C36.4132 23.9333 39.9999 27.5199 39.9999 31.9333C39.9999 34.8933 38.3866 37.4666 35.9999 38.8533V45.2666ZM42.6666 33.3333H46.6666V30.6666H42.6666V33.3333ZM38.9866 23.0533L41.3733 20.6533L43.2533 22.5333L40.8533 24.9199L38.9866 23.0533Z" fill="white"/>
</svg>
