<svg width="48" height="48" viewBox="0 0 48 48" fill="none" xmlns="http://www.w3.org/2000/svg">
<circle cx="24" cy="24" r="24" fill="#3D6AC7"/>
<path d="M30.92 18.01C30.72 17.42 30.16 17 29.5 17H18.5C17.84 17 17.29 17.42 17.08 18.01L15 24V32C15 32.55 15.45 33 16 33H17C17.55 33 18 32.55 18 32V31H30V32C30 32.55 30.45 33 31 33H32C32.55 33 33 32.55 33 32V24L30.92 18.01ZM18.5 28C17.67 28 17 27.33 17 26.5C17 25.67 17.67 25 18.5 25C19.33 25 20 25.67 20 26.5C20 27.33 19.33 28 18.5 28ZM29.5 28C28.67 28 28 27.33 28 26.5C28 25.67 28.67 25 29.5 25C30.33 25 31 25.67 31 26.5C31 27.33 30.33 28 29.5 28ZM17 23L18.5 18.5H29.5L31 23H17Z" fill="white"/>
</svg>
