<svg width="64" height="64" viewBox="0 0 64 64" fill="none" xmlns="http://www.w3.org/2000/svg">
<rect width="64" height="64" rx="32" fill="#EBF4FB"/>
<path d="M32 23.8667C33.5466 23.8667 34.8 25.12 34.8 26.6667C34.8 28.2133 33.5466 29.4667 32 29.4667C30.4533 29.4667 29.2 28.2133 29.2 26.6667C29.2 25.12 30.4533 23.8667 32 23.8667ZM32 35.8667C35.96 35.8667 40.1333 37.8133 40.1333 38.6667V40.1333H23.8666V38.6667C23.8666 37.8133 28.04 35.8667 32 35.8667ZM32 21.3333C29.0533 21.3333 26.6666 23.72 26.6666 26.6667C26.6666 29.6133 29.0533 32 32 32C34.9466 32 37.3333 29.6133 37.3333 26.6667C37.3333 23.72 34.9466 21.3333 32 21.3333ZM32 33.3333C28.44 33.3333 21.3333 35.12 21.3333 38.6667V42.6667H42.6666V38.6667C42.6666 35.12 35.56 33.3333 32 33.3333Z" fill="#3D6AC7"/>
</svg>
