<svg width="20" height="20" viewBox="0 0 20 20" fill="none" xmlns="http://www.w3.org/2000/svg">
<path d="M10 1.805C12.67 1.805 13 1.805 14.04 1.865C16.75 1.99 18.04 3.275 18.14 5.965C18.19 7.02 18.195 7.335 18.195 10.005C18.195 12.675 18.195 13.005 18.14 14.045C18.015 16.73 16.755 18.045 14.04 18.145C12.985 18.195 12.67 18.205 10 18.205C7.33 18.205 7 18.205 5.96 18.145C3.245 18.02 1.96 16.73 1.86 14.045C1.81 13 1.8 12.67 1.8 10C1.8 7.33 1.8 7 1.86 5.96C1.985 3.27 3.245 1.96 5.96 1.86C7 1.815 7.33 1.805 10 1.805ZM10 0C7.285 0 6.945 -5.58794e-08 5.88 0.06C2.245 0.225 0.225 2.24 0.0599999 5.875C-5.58794e-08 6.945 0 7.285 0 10C0 12.715 -5.58794e-08 13.055 0.0599999 14.125C0.225 17.755 2.24 19.775 5.875 19.94C6.94 19.99 7.28 20 10 20C12.72 20 13.055 20 14.125 19.94C17.755 19.775 19.775 17.76 19.94 14.125C20 13.055 20 12.715 20 10C20 7.285 20 6.945 19.94 5.88C19.775 2.25 17.76 0.23 14.125 0.06C13.055 -5.58794e-08 12.715 0 10 0ZM10 4.865C8.98439 4.865 7.99159 5.16616 7.14715 5.7304C6.3027 6.29465 5.64453 7.09662 5.25588 8.03492C4.86722 8.97322 4.76553 10.0057 4.96367 11.0018C5.1618 11.9979 5.65086 12.9129 6.36901 13.631C7.08715 14.3491 8.00212 14.8382 8.99821 15.0363C9.9943 15.2345 11.0268 15.1328 11.9651 14.7441C12.9034 14.3555 13.7054 13.6973 14.2696 12.8529C14.8338 12.0084 15.135 11.0156 15.135 10C15.135 8.63811 14.594 7.33201 13.631 6.36901C12.668 5.40601 11.3619 4.865 10 4.865ZM10 13.335C9.3404 13.335 8.69561 13.1394 8.14717 12.773C7.59873 12.4065 7.17128 11.8856 6.91886 11.2762C6.66644 10.6669 6.6004 9.9963 6.72908 9.34937C6.85776 8.70245 7.17539 8.10821 7.6418 7.6418C8.10821 7.17539 8.70245 6.85776 9.34937 6.72908C9.9963 6.6004 10.6669 6.66644 11.2762 6.91886C11.8856 7.17128 12.4065 7.59874 12.773 8.14717C13.1394 8.69561 13.335 9.3404 13.335 10C13.335 10.438 13.2487 10.8716 13.0811 11.2762C12.9135 11.6809 12.6679 12.0485 12.3582 12.3582C12.0485 12.6679 11.6809 12.9135 11.2762 13.0811C10.8716 13.2487 10.438 13.335 10 13.335ZM15.34 3.465C15.1027 3.465 14.8707 3.53538 14.6733 3.66724C14.476 3.79909 14.3222 3.98651 14.2313 4.20578C14.1405 4.42505 14.1168 4.66633 14.1631 4.89911C14.2094 5.13189 14.3236 5.34571 14.4915 5.51353C14.6593 5.68135 14.8731 5.79564 15.1059 5.84194C15.3387 5.88825 15.5799 5.86448 15.7992 5.77366C16.0185 5.68283 16.2059 5.52902 16.3378 5.33168C16.4696 5.13435 16.54 4.90234 16.54 4.665C16.54 4.34674 16.4136 4.04152 16.1885 3.81647C15.9635 3.59143 15.6583 3.465 15.34 3.465Z" fill="white"/>
</svg>
