<svg width="24" height="24" viewBox="0 0 24 24" fill="none" xmlns="http://www.w3.org/2000/svg">
<path d="M22.6755 24C23.4069 24 24 23.4069 24 22.6753V1.32461C24 0.592925 23.407 0 22.6755 0H1.32462C0.592929 0 0 0.592925 0 1.32461V22.6753C0 23.4068 0.592836 24 1.32462 24H22.6755Z" fill="#3B5A96"/>
<path d="M16.5585 23.9998V14.7057H19.6781L20.1452 11.0836H16.5585V8.77117C16.5585 7.72249 16.8497 7.00785 18.3535 7.00785L20.2715 7.00701V3.76739C19.9398 3.72325 18.8013 3.62463 17.4766 3.62463C14.7113 3.62463 12.818 5.31261 12.818 8.41245V11.0836H9.69043V14.7057H12.818V23.9998H16.5585Z" fill="white"/>
</svg>
