<svg width="48" height="48" viewBox="0 0 48 48" fill="none" xmlns="http://www.w3.org/2000/svg">
<circle cx="24" cy="24" r="24" fill="#EBF4FB"/>
<path d="M17 20H19V28H17V20ZM24 20H21C20.45 20 20 20.45 20 21V27C20 27.55 20.45 28 21 28H24C24.55 28 25 27.55 25 27V21C25 20.45 24.55 20 24 20ZM23 26H22V22H23V26ZM30 20H27C26.45 20 26 20.45 26 21V27C26 27.55 26.45 28 27 28H30C30.55 28 31 27.55 31 27V21C31 20.45 30.55 20 30 20ZM29 26H28V22H29V26Z" fill="#3D6AC7"/>
<path d="M14 16V32H34V16H14ZM16 30V18H32V30H16Z" fill="#3D6AC7"/>
</svg>
