<svg width="113" height="18" viewBox="0 0 113 18" fill="none" xmlns="http://www.w3.org/2000/svg">
<path d="M5.9668 4.06055V17H3.69141V4.06055H0.224609V1.92188H9.42383V4.06055H5.9668ZM11.0352 0.505859H13.2324V8.2793C14.0137 7.57617 14.8763 7.22461 15.8203 7.22461C16.8945 7.22461 17.7539 7.57292 18.3984 8.26953C18.9453 8.875 19.2188 9.8418 19.2188 11.1699V17H17.0215V11.375C17.0215 10.6133 16.8848 10.0632 16.6113 9.72461C16.3444 9.37956 15.9115 9.20703 15.3125 9.20703C14.5443 9.20703 14.0039 9.44466 13.6914 9.91992C13.3854 10.4017 13.2324 11.2285 13.2324 12.4004V17H11.0352V0.505859ZM30.6738 12.7617H23.8574C23.916 13.543 24.1699 14.1647 24.6191 14.627C25.0684 15.0827 25.6445 15.3105 26.3477 15.3105C26.8945 15.3105 27.347 15.1803 27.7051 14.9199C28.0566 14.6595 28.457 14.1777 28.9062 13.4746L30.7617 14.5098C30.4753 14.998 30.1725 15.418 29.8535 15.7695C29.5345 16.1146 29.1927 16.401 28.8281 16.6289C28.4635 16.8503 28.0697 17.013 27.6465 17.1172C27.2233 17.2214 26.7643 17.2734 26.2695 17.2734C24.8503 17.2734 23.7109 16.8177 22.8516 15.9062C21.9922 14.9883 21.5625 13.7708 21.5625 12.2539C21.5625 10.75 21.9792 9.53255 22.8125 8.60156C23.6523 7.68359 24.7656 7.22461 26.1523 7.22461C27.5521 7.22461 28.6589 7.67057 29.4727 8.5625C30.2799 9.44792 30.6836 10.6751 30.6836 12.2441L30.6738 12.7617ZM28.418 10.9648C28.112 9.79297 27.373 9.20703 26.2012 9.20703C25.9342 9.20703 25.6836 9.24935 25.4492 9.33398C25.2148 9.41211 25 9.5293 24.8047 9.68555C24.6159 9.83529 24.4531 10.0176 24.3164 10.2324C24.1797 10.4473 24.0755 10.6914 24.0039 10.9648H28.418ZM39.6777 17V0.896484L50.6738 12.4004V1.92188H52.9492V17.918L41.9531 6.44336V17H39.6777ZM58.584 7.48828V12.9473C58.584 14.5228 59.2057 15.3105 60.4492 15.3105C61.6927 15.3105 62.3145 14.5228 62.3145 12.9473V7.48828H64.5117V12.9961C64.5117 13.7578 64.4173 14.4154 64.2285 14.9688C64.0462 15.4635 63.7305 15.9095 63.2812 16.3066C62.5391 16.9512 61.5951 17.2734 60.4492 17.2734C59.3099 17.2734 58.3691 16.9512 57.627 16.3066C57.1712 15.9095 56.849 15.4635 56.6602 14.9688C56.4779 14.526 56.3867 13.8685 56.3867 12.9961V7.48828H58.584ZM67.2852 7.48828H69.4824V8.36719C69.9056 7.92448 70.2669 7.625 70.5664 7.46875C70.8854 7.30599 71.2858 7.22461 71.7676 7.22461C72.8418 7.22461 73.6914 7.69336 74.3164 8.63086C75.0065 7.69336 75.9408 7.22461 77.1191 7.22461C79.2611 7.22461 80.332 8.52344 80.332 11.1211V17H78.125V11.7168C78.125 10.8053 78.0143 10.1608 77.793 9.7832C77.5651 9.39909 77.1908 9.20703 76.6699 9.20703C76.0645 9.20703 75.6217 9.4349 75.3418 9.89062C75.0684 10.3464 74.9316 11.0788 74.9316 12.0879V17H72.7246V11.7461C72.7246 10.0534 72.2363 9.20703 71.2598 9.20703C70.6413 9.20703 70.1888 9.43815 69.9023 9.90039C69.6224 10.3626 69.4824 11.0918 69.4824 12.0879V17H67.2852V7.48828ZM85.3027 0.505859V8.5918C86.1816 7.68034 87.1777 7.22461 88.291 7.22461C89.5736 7.22461 90.6413 7.70312 91.4941 8.66016C92.347 9.61068 92.7734 10.7956 92.7734 12.2148C92.7734 13.6797 92.3438 14.8906 91.4844 15.8477C90.6315 16.7982 89.554 17.2734 88.252 17.2734C87.1517 17.2734 86.1686 16.8503 85.3027 16.0039V17H83.1055V0.505859H85.3027ZM90.5273 12.3125C90.5273 11.401 90.2799 10.6589 89.7852 10.0859C89.2839 9.5 88.6556 9.20703 87.9004 9.20703C87.0931 9.20703 86.4355 9.49023 85.9277 10.0566C85.4264 10.6165 85.1758 11.3457 85.1758 12.2441C85.1758 13.1686 85.4232 13.9076 85.918 14.4609C86.4128 15.0273 87.0638 15.3105 87.8711 15.3105C88.6328 15.3105 89.2643 15.0273 89.7656 14.4609C90.2734 13.888 90.5273 13.1719 90.5273 12.3125ZM103.76 12.7617H96.9434C97.002 13.543 97.2559 14.1647 97.7051 14.627C98.1543 15.0827 98.7305 15.3105 99.4336 15.3105C99.9805 15.3105 100.433 15.1803 100.791 14.9199C101.143 14.6595 101.543 14.1777 101.992 13.4746L103.848 14.5098C103.561 14.998 103.258 15.418 102.939 15.7695C102.62 16.1146 102.279 16.401 101.914 16.6289C101.549 16.8503 101.156 17.013 100.732 17.1172C100.309 17.2214 99.8503 17.2734 99.3555 17.2734C97.9362 17.2734 96.7969 16.8177 95.9375 15.9062C95.0781 14.9883 94.6484 13.7708 94.6484 12.2539C94.6484 10.75 95.0651 9.53255 95.8984 8.60156C96.7383 7.68359 97.8516 7.22461 99.2383 7.22461C100.638 7.22461 101.745 7.67057 102.559 8.5625C103.366 9.44792 103.77 10.6751 103.77 12.2441L103.76 12.7617ZM101.504 10.9648C101.198 9.79297 100.459 9.20703 99.2871 9.20703C99.0202 9.20703 98.7695 9.24935 98.5352 9.33398C98.3008 9.41211 98.0859 9.5293 97.8906 9.68555C97.7018 9.83529 97.5391 10.0176 97.4023 10.2324C97.2656 10.4473 97.1615 10.6914 97.0898 10.9648H101.504ZM106.172 7.48828H108.369V8.33789C108.773 7.91471 109.131 7.625 109.443 7.46875C109.762 7.30599 110.14 7.22461 110.576 7.22461C111.156 7.22461 111.761 7.41341 112.393 7.79102L111.387 9.80273C110.97 9.50326 110.563 9.35352 110.166 9.35352C108.968 9.35352 108.369 10.2585 108.369 12.0684V17H106.172V7.48828Z" fill="#202020"/>
</svg>
