<svg width="32" height="32" viewBox="0 0 32 32" fill="none" xmlns="http://www.w3.org/2000/svg">
<circle cx="16" cy="16" r="16" fill="#66AAEB"/>
<path d="M22.6666 11.8633C22.1677 12.0842 21.6385 12.2292 21.0966 12.2933C21.6675 11.9525 22.0951 11.4159 22.3 10.7833C21.7633 11.103 21.176 11.3284 20.5633 11.45C20.1518 11.0074 19.6054 10.7134 19.0093 10.614C18.4132 10.5146 17.8009 10.6153 17.2681 10.9004C16.7352 11.1854 16.3117 11.6389 16.0636 12.19C15.8155 12.741 15.7568 13.3587 15.8966 13.9467C14.8089 13.8913 13.7449 13.6078 12.7738 13.1145C11.8027 12.6212 10.9462 11.9292 10.26 11.0833C9.90624 11.6871 9.79687 12.4032 9.9543 13.085C10.1117 13.7668 10.524 14.3625 11.1066 14.75C10.6727 14.7393 10.2475 14.625 9.86665 14.4167C9.85863 15.0541 10.0734 15.6743 10.4738 16.1702C10.8742 16.6662 11.4352 17.0068 12.06 17.1333C11.6567 17.243 11.2337 17.259 10.8233 17.18C10.9979 17.7239 11.3382 18.1996 11.7967 18.5403C12.2552 18.881 12.8088 19.0698 13.38 19.08C12.2308 19.9702 10.7759 20.3693 9.33331 20.19C10.584 20.9941 12.0398 21.4211 13.5266 21.42C18.6066 21.42 21.4733 17.13 21.3033 13.2833C21.8386 12.8949 22.3003 12.414 22.6666 11.8633Z" fill="white"/>
</svg>
