<svg width="20" height="18" viewBox="0 0 20 18" fill="none" xmlns="http://www.w3.org/2000/svg">
<path d="M20 2.79504C19.2516 3.12637 18.4578 3.34378 17.645 3.44004C18.5013 2.92872 19.1427 2.12383 19.45 1.17504C18.645 1.65449 17.764 1.9927 16.845 2.17504C16.2278 1.51113 15.4081 1.0702 14.514 0.921059C13.6198 0.771913 12.7014 0.922937 11.9021 1.35057C11.1028 1.7782 10.4675 2.45838 10.0954 3.28499C9.72328 4.1116 9.63523 5.03814 9.845 5.92004C8.21331 5.83702 6.61733 5.41173 5.1607 4.67179C3.70407 3.93184 2.41936 2.89379 1.39 1.62504C0.859389 2.53061 0.695335 3.60488 0.931478 4.62755C1.16762 5.65021 1.78607 6.54379 2.66 7.12504C2.00901 7.10901 1.37129 6.93758 0.8 6.62504C0.787969 7.58113 1.11007 8.51142 1.71071 9.25538C2.31135 9.99934 3.15286 10.5103 4.09 10.7C3.4851 10.8645 2.85058 10.8885 2.235 10.77C2.49682 11.5859 3.00739 12.2994 3.69512 12.8105C4.38286 13.3216 5.21328 13.6047 6.07 13.62C4.34621 14.9554 2.16386 15.554 0 15.285C1.87604 16.4912 4.05968 17.1317 6.29 17.13C13.91 17.13 18.21 10.695 17.955 4.92504C18.758 4.34241 19.4505 3.62109 20 2.79504Z" fill="white"/>
</svg>
