<svg width="32" height="32" viewBox="0 0 32 32" fill="none" xmlns="http://www.w3.org/2000/svg">
<circle cx="16" cy="16" r="16" fill="#4C77A6"/>
<path fill-rule="evenodd" clip-rule="evenodd" d="M22.3454 12.5576C22.4428 12.2362 22.3454 12 21.8823 12H20.3507C19.9612 12 19.7817 12.204 19.6843 12.429C19.6843 12.429 18.9054 14.3095 17.8021 15.5309C17.4451 15.8845 17.2828 15.997 17.0881 15.997C16.9907 15.997 16.8447 15.8845 16.8447 15.5631V12.5576C16.8447 12.1719 16.7368 12 16.4122 12H14.0054C13.7621 12 13.6157 12.179 13.6157 12.3487C13.6157 12.7144 14.1674 12.7987 14.2242 13.8273V16.0613C14.2242 16.5511 14.1349 16.6399 13.9402 16.6399C13.421 16.6399 12.158 14.7511 11.4089 12.5898C11.2621 12.1697 11.1149 12 10.7234 12H9.19181C8.75421 12 8.66669 12.204 8.66669 12.429C8.66669 12.8308 9.18594 14.8238 11.0844 17.4595C12.35 19.2595 14.1332 20.2353 15.7558 20.2353C16.7294 20.2353 16.8498 20.0186 16.8498 19.6453V18.2848C16.8498 17.8514 16.9421 17.7649 17.2504 17.7649C17.4775 17.7649 17.867 17.8774 18.7756 18.7453C19.8141 19.7739 19.9853 20.2353 20.5695 20.2353H22.1011C22.5387 20.2353 22.7575 20.0186 22.6312 19.5909C22.4931 19.1646 21.9973 18.5462 21.3394 17.8131C20.9824 17.3952 20.4469 16.9452 20.2847 16.7202C20.0575 16.4309 20.1224 16.3023 20.2847 16.0452C20.2847 16.0452 22.1507 13.4416 22.3454 12.5576Z" fill="white"/>
</svg>
