<svg width="48" height="48" viewBox="0 0 48 48" fill="none" xmlns="http://www.w3.org/2000/svg">
<circle cx="24" cy="24" r="24" fill="#3D6AC7"/>
<path d="M25.127 26.56L26.557 25.13L32.997 31.573L31.57 33L25.127 26.56ZM29.42 20.83L32.28 17.97C28.33 14.02 21.93 14.01 17.98 17.95C21.91 16.65 26.29 17.7 29.42 20.83ZM17.95 17.98C14.01 21.93 14.02 28.33 17.97 32.28L20.83 29.42C17.7 26.29 16.65 21.91 17.95 17.98ZM17.97 17.96L17.96 17.97C17.58 20.98 19.13 24.85 22.26 27.99L27.99 22.26C24.86 19.13 20.98 17.58 17.97 17.96Z" fill="white"/>
</svg>
